<mxfile host="app.diagrams.net" agent="Mozilla/5.0 (Windows NT 10.0; Win64; x64) AppleWebKit/537.36 (KHTML, like Gecko) Chrome/137.0.0.0 Safari/537.36" version="27.1.6">
  <diagram name="PÃ¡gina-1" id="I1SomiNjjq00_smB_cam">
    <mxGraphModel dx="2940" dy="1680" grid="1" gridSize="10" guides="1" tooltips="1" connect="1" arrows="1" fold="1" page="1" pageScale="1" pageWidth="827" pageHeight="1169" math="1" shadow="0">
      <root>
        <mxCell id="0" />
        <mxCell id="1" parent="0" />
        <mxCell id="8zpeKdVMz-bTk2ZO7SkQ-56" value="" style="group" vertex="1" connectable="0" parent="1">
          <mxGeometry x="343" y="352" width="1357" height="1120" as="geometry" />
        </mxCell>
        <mxCell id="8zpeKdVMz-bTk2ZO7SkQ-57" style="edgeStyle=orthogonalEdgeStyle;rounded=0;orthogonalLoop=1;jettySize=auto;html=1;exitX=0;exitY=0.5;exitDx=0;exitDy=0;entryX=0.5;entryY=0;entryDx=0;entryDy=0;curved=1;" edge="1" parent="8zpeKdVMz-bTk2ZO7SkQ-56" source="8zpeKdVMz-bTk2ZO7SkQ-60" target="8zpeKdVMz-bTk2ZO7SkQ-73">
          <mxGeometry relative="1" as="geometry" />
        </mxCell>
        <mxCell id="8zpeKdVMz-bTk2ZO7SkQ-58" style="edgeStyle=orthogonalEdgeStyle;rounded=0;orthogonalLoop=1;jettySize=auto;html=1;exitX=1;exitY=0.5;exitDx=0;exitDy=0;entryX=0.5;entryY=0;entryDx=0;entryDy=0;curved=1;" edge="1" parent="8zpeKdVMz-bTk2ZO7SkQ-56" source="8zpeKdVMz-bTk2ZO7SkQ-60" target="8zpeKdVMz-bTk2ZO7SkQ-63">
          <mxGeometry relative="1" as="geometry" />
        </mxCell>
        <mxCell id="8zpeKdVMz-bTk2ZO7SkQ-60" value="S0" style="ellipse;whiteSpace=wrap;html=1;strokeColor=default;align=center;verticalAlign=middle;fontFamily=Helvetica;fontSize=30;fontColor=default;fillColor=default;" vertex="1" parent="8zpeKdVMz-bTk2ZO7SkQ-56">
          <mxGeometry x="665" y="122.81690140845069" width="156.47058823529414" height="122.81690140845069" as="geometry" />
        </mxCell>
        <mxCell id="8zpeKdVMz-bTk2ZO7SkQ-61" style="edgeStyle=orthogonalEdgeStyle;rounded=0;orthogonalLoop=1;jettySize=auto;html=1;exitX=0.5;exitY=1;exitDx=0;exitDy=0;entryX=1;entryY=0;entryDx=0;entryDy=0;curved=1;" edge="1" parent="8zpeKdVMz-bTk2ZO7SkQ-56" source="8zpeKdVMz-bTk2ZO7SkQ-63" target="8zpeKdVMz-bTk2ZO7SkQ-68">
          <mxGeometry relative="1" as="geometry">
            <Array as="points">
              <mxPoint x="1153.9705882352941" y="521.9718309859154" />
              <mxPoint x="1153.9705882352941" y="709.2676056338028" />
            </Array>
          </mxGeometry>
        </mxCell>
        <mxCell id="8zpeKdVMz-bTk2ZO7SkQ-62" style="edgeStyle=orthogonalEdgeStyle;rounded=0;orthogonalLoop=1;jettySize=auto;html=1;exitX=0;exitY=0.5;exitDx=0;exitDy=0;curved=1;" edge="1" parent="8zpeKdVMz-bTk2ZO7SkQ-56" source="8zpeKdVMz-bTk2ZO7SkQ-63">
          <mxGeometry relative="1" as="geometry">
            <mxPoint x="782.3529411764706" y="260.9859154929577" as="targetPoint" />
          </mxGeometry>
        </mxCell>
        <mxCell id="8zpeKdVMz-bTk2ZO7SkQ-116" style="edgeStyle=orthogonalEdgeStyle;rounded=0;orthogonalLoop=1;jettySize=auto;html=1;exitX=0;exitY=0;exitDx=0;exitDy=0;curved=1;" edge="1" parent="8zpeKdVMz-bTk2ZO7SkQ-56" source="8zpeKdVMz-bTk2ZO7SkQ-63">
          <mxGeometry relative="1" as="geometry">
            <mxPoint x="797" y="238" as="targetPoint" />
          </mxGeometry>
        </mxCell>
        <mxCell id="8zpeKdVMz-bTk2ZO7SkQ-63" value="S1" style="ellipse;whiteSpace=wrap;html=1;strokeColor=default;align=center;verticalAlign=middle;fontFamily=Helvetica;fontSize=30;fontColor=default;fillColor=default;" vertex="1" parent="8zpeKdVMz-bTk2ZO7SkQ-56">
          <mxGeometry x="1036.6176470588234" y="399.15492957746477" width="156.47058823529414" height="122.81690140845069" as="geometry" />
        </mxCell>
        <mxCell id="8zpeKdVMz-bTk2ZO7SkQ-64" style="edgeStyle=orthogonalEdgeStyle;rounded=0;orthogonalLoop=1;jettySize=auto;html=1;exitX=0.5;exitY=0;exitDx=0;exitDy=0;entryX=0;entryY=1;entryDx=0;entryDy=0;curved=1;" edge="1" parent="8zpeKdVMz-bTk2ZO7SkQ-56" source="8zpeKdVMz-bTk2ZO7SkQ-68" target="8zpeKdVMz-bTk2ZO7SkQ-63">
          <mxGeometry relative="1" as="geometry">
            <Array as="points">
              <mxPoint x="997.5" y="690.8450704225351" />
              <mxPoint x="997.5" y="503.5492957746479" />
            </Array>
          </mxGeometry>
        </mxCell>
        <mxCell id="8zpeKdVMz-bTk2ZO7SkQ-65" style="edgeStyle=orthogonalEdgeStyle;rounded=0;orthogonalLoop=1;jettySize=auto;html=1;exitX=0.5;exitY=0;exitDx=0;exitDy=0;entryX=0;entryY=1;entryDx=0;entryDy=0;curved=1;" edge="1" parent="8zpeKdVMz-bTk2ZO7SkQ-56" source="8zpeKdVMz-bTk2ZO7SkQ-70" target="8zpeKdVMz-bTk2ZO7SkQ-68">
          <mxGeometry relative="1" as="geometry">
            <Array as="points">
              <mxPoint x="899.7058823529411" y="795.2394366197183" />
            </Array>
          </mxGeometry>
        </mxCell>
        <mxCell id="8zpeKdVMz-bTk2ZO7SkQ-66" style="edgeStyle=orthogonalEdgeStyle;rounded=0;orthogonalLoop=1;jettySize=auto;html=1;exitX=0.5;exitY=1;exitDx=0;exitDy=0;entryX=1;entryY=0;entryDx=0;entryDy=0;curved=1;" edge="1" parent="8zpeKdVMz-bTk2ZO7SkQ-56" source="8zpeKdVMz-bTk2ZO7SkQ-68" target="8zpeKdVMz-bTk2ZO7SkQ-70">
          <mxGeometry relative="1" as="geometry">
            <Array as="points">
              <mxPoint x="1056.1764705882354" y="985.6056338028168" />
            </Array>
          </mxGeometry>
        </mxCell>
        <mxCell id="8zpeKdVMz-bTk2ZO7SkQ-67" style="edgeStyle=orthogonalEdgeStyle;rounded=0;orthogonalLoop=1;jettySize=auto;html=1;exitX=0;exitY=0;exitDx=0;exitDy=0;curved=1;" edge="1" parent="8zpeKdVMz-bTk2ZO7SkQ-56" source="8zpeKdVMz-bTk2ZO7SkQ-68">
          <mxGeometry relative="1" as="geometry">
            <mxPoint x="762.7941176470588" y="260.9859154929577" as="targetPoint" />
          </mxGeometry>
        </mxCell>
        <mxCell id="8zpeKdVMz-bTk2ZO7SkQ-68" value="S3" style="ellipse;whiteSpace=wrap;html=1;strokeColor=default;align=center;verticalAlign=middle;fontFamily=Helvetica;fontSize=30;fontColor=default;fillColor=default;" vertex="1" parent="8zpeKdVMz-bTk2ZO7SkQ-56">
          <mxGeometry x="977.9411764705883" y="690.8450704225351" width="156.47058823529414" height="122.81690140845069" as="geometry" />
        </mxCell>
        <mxCell id="8zpeKdVMz-bTk2ZO7SkQ-69" style="edgeStyle=orthogonalEdgeStyle;rounded=0;orthogonalLoop=1;jettySize=auto;html=1;exitX=0;exitY=0;exitDx=0;exitDy=0;curved=1;" edge="1" parent="8zpeKdVMz-bTk2ZO7SkQ-56" source="8zpeKdVMz-bTk2ZO7SkQ-70">
          <mxGeometry relative="1" as="geometry">
            <mxPoint x="743.2352941176471" y="260.9859154929577" as="targetPoint" />
          </mxGeometry>
        </mxCell>
        <mxCell id="8zpeKdVMz-bTk2ZO7SkQ-70" value="S5" style="ellipse;whiteSpace=wrap;html=1;strokeColor=default;align=center;verticalAlign=middle;fontFamily=Helvetica;fontSize=30;fontColor=default;fillColor=default;" vertex="1" parent="8zpeKdVMz-bTk2ZO7SkQ-56">
          <mxGeometry x="821.470588235294" y="967.1830985915491" width="156.47058823529414" height="122.81690140845069" as="geometry" />
        </mxCell>
        <mxCell id="8zpeKdVMz-bTk2ZO7SkQ-71" style="edgeStyle=orthogonalEdgeStyle;rounded=0;orthogonalLoop=1;jettySize=auto;html=1;exitX=1;exitY=0;exitDx=0;exitDy=0;entryX=0;entryY=1;entryDx=0;entryDy=0;curved=1;" edge="1" parent="8zpeKdVMz-bTk2ZO7SkQ-56" source="8zpeKdVMz-bTk2ZO7SkQ-73" target="8zpeKdVMz-bTk2ZO7SkQ-60">
          <mxGeometry relative="1" as="geometry" />
        </mxCell>
        <mxCell id="8zpeKdVMz-bTk2ZO7SkQ-72" style="edgeStyle=orthogonalEdgeStyle;rounded=0;orthogonalLoop=1;jettySize=auto;html=1;exitX=0.5;exitY=1;exitDx=0;exitDy=0;entryX=0.5;entryY=0;entryDx=0;entryDy=0;curved=1;" edge="1" parent="8zpeKdVMz-bTk2ZO7SkQ-56" source="8zpeKdVMz-bTk2ZO7SkQ-73" target="8zpeKdVMz-bTk2ZO7SkQ-77">
          <mxGeometry relative="1" as="geometry">
            <Array as="points">
              <mxPoint x="254.26470588235296" y="675.492957746479" />
            </Array>
          </mxGeometry>
        </mxCell>
        <mxCell id="8zpeKdVMz-bTk2ZO7SkQ-73" value="S2" style="ellipse;whiteSpace=wrap;html=1;fontSize=30;" vertex="1" parent="8zpeKdVMz-bTk2ZO7SkQ-56">
          <mxGeometry x="176.02941176470586" y="414.50704225352104" width="156.47058823529414" height="122.81690140845069" as="geometry" />
        </mxCell>
        <mxCell id="8zpeKdVMz-bTk2ZO7SkQ-74" style="edgeStyle=orthogonalEdgeStyle;rounded=0;orthogonalLoop=1;jettySize=auto;html=1;exitX=1;exitY=0;exitDx=0;exitDy=0;entryX=1;entryY=1;entryDx=0;entryDy=0;curved=1;" edge="1" parent="8zpeKdVMz-bTk2ZO7SkQ-56" source="8zpeKdVMz-bTk2ZO7SkQ-77" target="8zpeKdVMz-bTk2ZO7SkQ-73">
          <mxGeometry relative="1" as="geometry">
            <Array as="points">
              <mxPoint x="357.9264705882353" y="518.9014084507041" />
            </Array>
          </mxGeometry>
        </mxCell>
        <mxCell id="8zpeKdVMz-bTk2ZO7SkQ-75" style="edgeStyle=orthogonalEdgeStyle;rounded=0;orthogonalLoop=1;jettySize=auto;html=1;exitX=0.5;exitY=1;exitDx=0;exitDy=0;entryX=0;entryY=0;entryDx=0;entryDy=0;curved=1;" edge="1" parent="8zpeKdVMz-bTk2ZO7SkQ-56" source="8zpeKdVMz-bTk2ZO7SkQ-77" target="8zpeKdVMz-bTk2ZO7SkQ-80">
          <mxGeometry relative="1" as="geometry">
            <Array as="points">
              <mxPoint x="303.1617647058823" y="970.2535211267605" />
            </Array>
          </mxGeometry>
        </mxCell>
        <mxCell id="8zpeKdVMz-bTk2ZO7SkQ-76" style="edgeStyle=orthogonalEdgeStyle;rounded=0;orthogonalLoop=1;jettySize=auto;html=1;exitX=1;exitY=0.5;exitDx=0;exitDy=0;curved=1;" edge="1" parent="8zpeKdVMz-bTk2ZO7SkQ-56" source="8zpeKdVMz-bTk2ZO7SkQ-77">
          <mxGeometry relative="1" as="geometry">
            <mxPoint x="723.6764705882352" y="260.9859154929577" as="targetPoint" />
          </mxGeometry>
        </mxCell>
        <mxCell id="8zpeKdVMz-bTk2ZO7SkQ-77" value="S4" style="ellipse;whiteSpace=wrap;html=1;strokeColor=default;align=center;verticalAlign=middle;fontFamily=Helvetica;fontSize=30;fontColor=default;fillColor=default;" vertex="1" parent="8zpeKdVMz-bTk2ZO7SkQ-56">
          <mxGeometry x="224.92647058823528" y="675.492957746479" width="156.47058823529414" height="122.81690140845069" as="geometry" />
        </mxCell>
        <mxCell id="8zpeKdVMz-bTk2ZO7SkQ-78" style="edgeStyle=orthogonalEdgeStyle;rounded=0;orthogonalLoop=1;jettySize=auto;html=1;exitX=0.5;exitY=0;exitDx=0;exitDy=0;entryX=1;entryY=1;entryDx=0;entryDy=0;curved=1;" edge="1" parent="8zpeKdVMz-bTk2ZO7SkQ-56" source="8zpeKdVMz-bTk2ZO7SkQ-80" target="8zpeKdVMz-bTk2ZO7SkQ-77">
          <mxGeometry relative="1" as="geometry">
            <Array as="points">
              <mxPoint x="449.85294117647055" y="779.887323943662" />
            </Array>
          </mxGeometry>
        </mxCell>
        <mxCell id="8zpeKdVMz-bTk2ZO7SkQ-79" style="edgeStyle=orthogonalEdgeStyle;rounded=0;orthogonalLoop=1;jettySize=auto;html=1;exitX=1;exitY=0;exitDx=0;exitDy=0;curved=1;" edge="1" parent="8zpeKdVMz-bTk2ZO7SkQ-56" source="8zpeKdVMz-bTk2ZO7SkQ-80">
          <mxGeometry relative="1" as="geometry">
            <mxPoint x="743.2352941176471" y="260.9859154929577" as="targetPoint" />
            <Array as="points">
              <mxPoint x="743" y="970" />
            </Array>
          </mxGeometry>
        </mxCell>
        <mxCell id="8zpeKdVMz-bTk2ZO7SkQ-80" value="S6" style="ellipse;whiteSpace=wrap;html=1;strokeColor=default;align=center;verticalAlign=middle;fontFamily=Helvetica;fontSize=30;fontColor=default;fillColor=default;" vertex="1" parent="8zpeKdVMz-bTk2ZO7SkQ-56">
          <mxGeometry x="371.61764705882354" y="951.830985915493" width="156.47058823529414" height="122.81690140845069" as="geometry" />
        </mxCell>
        <mxCell id="8zpeKdVMz-bTk2ZO7SkQ-81" style="edgeStyle=orthogonalEdgeStyle;rounded=0;orthogonalLoop=1;jettySize=auto;html=1;exitX=1;exitY=0;exitDx=0;exitDy=0;entryX=0.5;entryY=0;entryDx=0;entryDy=0;curved=1;" edge="1" parent="8zpeKdVMz-bTk2ZO7SkQ-56" source="8zpeKdVMz-bTk2ZO7SkQ-60" target="8zpeKdVMz-bTk2ZO7SkQ-60">
          <mxGeometry relative="1" as="geometry">
            <Array as="points">
              <mxPoint x="938.8235294117648" y="141.23943661971828" />
              <mxPoint x="938.8235294117648" />
              <mxPoint x="743.2352941176471" />
            </Array>
          </mxGeometry>
        </mxCell>
        <mxCell id="8zpeKdVMz-bTk2ZO7SkQ-82" style="edgeStyle=orthogonalEdgeStyle;rounded=0;orthogonalLoop=1;jettySize=auto;html=1;exitX=0;exitY=0;exitDx=0;exitDy=0;entryX=0.5;entryY=0;entryDx=0;entryDy=0;curved=1;" edge="1" parent="8zpeKdVMz-bTk2ZO7SkQ-56" source="8zpeKdVMz-bTk2ZO7SkQ-60" target="8zpeKdVMz-bTk2ZO7SkQ-60">
          <mxGeometry relative="1" as="geometry">
            <Array as="points">
              <mxPoint x="547.6470588235295" y="141.23943661971828" />
              <mxPoint x="547.6470588235295" />
              <mxPoint x="743.2352941176471" />
            </Array>
          </mxGeometry>
        </mxCell>
        <mxCell id="8zpeKdVMz-bTk2ZO7SkQ-83" style="edgeStyle=orthogonalEdgeStyle;rounded=0;orthogonalLoop=1;jettySize=auto;html=1;exitX=1;exitY=1;exitDx=0;exitDy=0;entryX=1;entryY=0.5;entryDx=0;entryDy=0;curved=1;" edge="1" parent="8zpeKdVMz-bTk2ZO7SkQ-56" source="8zpeKdVMz-bTk2ZO7SkQ-63" target="8zpeKdVMz-bTk2ZO7SkQ-63">
          <mxGeometry relative="1" as="geometry">
            <Array as="points">
              <mxPoint x="1169.6176470588234" y="537.3239436619718" />
              <mxPoint x="1330" y="537.3239436619718" />
              <mxPoint x="1330" y="460.56338028169006" />
            </Array>
          </mxGeometry>
        </mxCell>
        <mxCell id="8zpeKdVMz-bTk2ZO7SkQ-84" style="edgeStyle=orthogonalEdgeStyle;rounded=0;orthogonalLoop=1;jettySize=auto;html=1;exitX=1;exitY=1;exitDx=0;exitDy=0;entryX=1;entryY=0.5;entryDx=0;entryDy=0;curved=1;" edge="1" parent="8zpeKdVMz-bTk2ZO7SkQ-56" source="8zpeKdVMz-bTk2ZO7SkQ-68" target="8zpeKdVMz-bTk2ZO7SkQ-68">
          <mxGeometry relative="1" as="geometry">
            <Array as="points">
              <mxPoint x="1110.941176470588" y="844.3661971830985" />
              <mxPoint x="1310.441176470588" y="844.3661971830985" />
              <mxPoint x="1310.441176470588" y="752.2535211267605" />
            </Array>
          </mxGeometry>
        </mxCell>
        <mxCell id="8zpeKdVMz-bTk2ZO7SkQ-85" style="edgeStyle=orthogonalEdgeStyle;rounded=0;orthogonalLoop=1;jettySize=auto;html=1;exitX=0;exitY=0.5;exitDx=0;exitDy=0;entryX=0;entryY=1;entryDx=0;entryDy=0;curved=1;" edge="1" parent="8zpeKdVMz-bTk2ZO7SkQ-56" source="8zpeKdVMz-bTk2ZO7SkQ-80" target="8zpeKdVMz-bTk2ZO7SkQ-80">
          <mxGeometry relative="1" as="geometry">
            <Array as="points">
              <mxPoint x="371.61764705882354" y="997.887323943662" />
              <mxPoint x="215.14705882352945" y="997.887323943662" />
              <mxPoint x="215.14705882352945" y="1074.6478873239437" />
              <mxPoint x="395.0882352941176" y="1074.6478873239437" />
            </Array>
          </mxGeometry>
        </mxCell>
        <mxCell id="8zpeKdVMz-bTk2ZO7SkQ-86" style="edgeStyle=orthogonalEdgeStyle;rounded=0;orthogonalLoop=1;jettySize=auto;html=1;exitX=0;exitY=0.5;exitDx=0;exitDy=0;entryX=0;entryY=1;entryDx=0;entryDy=0;curved=1;" edge="1" parent="8zpeKdVMz-bTk2ZO7SkQ-56" source="8zpeKdVMz-bTk2ZO7SkQ-77" target="8zpeKdVMz-bTk2ZO7SkQ-77">
          <mxGeometry relative="1" as="geometry">
            <Array as="points">
              <mxPoint x="224.92647058823528" y="721.5492957746478" />
              <mxPoint x="58.6764705882353" y="721.5492957746478" />
              <mxPoint x="58.6764705882353" y="798.3098591549295" />
              <mxPoint x="248.39705882352942" y="798.3098591549295" />
            </Array>
          </mxGeometry>
        </mxCell>
        <mxCell id="8zpeKdVMz-bTk2ZO7SkQ-87" style="edgeStyle=orthogonalEdgeStyle;rounded=0;orthogonalLoop=1;jettySize=auto;html=1;exitX=0;exitY=0;exitDx=0;exitDy=0;entryX=0;entryY=0.5;entryDx=0;entryDy=0;curved=1;" edge="1" parent="8zpeKdVMz-bTk2ZO7SkQ-56" source="8zpeKdVMz-bTk2ZO7SkQ-73" target="8zpeKdVMz-bTk2ZO7SkQ-73">
          <mxGeometry relative="1" as="geometry">
            <Array as="points">
              <mxPoint x="199.5" y="399.15492957746477" />
              <mxPoint y="399.15492957746477" />
              <mxPoint y="475.9154929577465" />
            </Array>
          </mxGeometry>
        </mxCell>
        <mxCell id="8zpeKdVMz-bTk2ZO7SkQ-88" style="edgeStyle=orthogonalEdgeStyle;rounded=0;orthogonalLoop=1;jettySize=auto;html=1;exitX=1;exitY=0.5;exitDx=0;exitDy=0;entryX=1;entryY=1;entryDx=0;entryDy=0;curved=1;" edge="1" parent="8zpeKdVMz-bTk2ZO7SkQ-56" source="8zpeKdVMz-bTk2ZO7SkQ-70" target="8zpeKdVMz-bTk2ZO7SkQ-70">
          <mxGeometry relative="1" as="geometry">
            <Array as="points">
              <mxPoint x="977.9411764705883" y="1013.2394366197183" />
              <mxPoint x="1134.4117647058824" y="1013.2394366197183" />
              <mxPoint x="1134.4117647058824" y="1071.5774647887322" />
            </Array>
          </mxGeometry>
        </mxCell>
        <mxCell id="8zpeKdVMz-bTk2ZO7SkQ-89" style="edgeStyle=orthogonalEdgeStyle;rounded=0;orthogonalLoop=1;jettySize=auto;html=1;exitX=1;exitY=0.5;exitDx=0;exitDy=0;entryX=0.275;entryY=1.016;entryDx=0;entryDy=0;entryPerimeter=0;curved=1;" edge="1" parent="8zpeKdVMz-bTk2ZO7SkQ-56" source="8zpeKdVMz-bTk2ZO7SkQ-73" target="8zpeKdVMz-bTk2ZO7SkQ-60">
          <mxGeometry relative="1" as="geometry" />
        </mxCell>
        <mxCell id="8zpeKdVMz-bTk2ZO7SkQ-90" value="&lt;span style=&quot;text-align: left; text-wrap-mode: wrap;&quot;&gt;&lt;font style=&quot;font-size: 15px;&quot;&gt;$$\overline{A},\,\overline{B} \,/\, 0,\,0$$&lt;/font&gt;&lt;/span&gt;" style="text;html=1;align=center;verticalAlign=middle;resizable=0;points=[];autosize=1;strokeColor=none;fillColor=none;" vertex="1" parent="8zpeKdVMz-bTk2ZO7SkQ-56">
          <mxGeometry x="487" y="768.31" width="280" height="30" as="geometry" />
        </mxCell>
        <mxCell id="8zpeKdVMz-bTk2ZO7SkQ-91" value="&lt;span style=&quot;text-align: left; text-wrap-mode: wrap;&quot;&gt;&lt;font style=&quot;font-size: 15px;&quot;&gt;$$\overline{A},\,\overline{B} \,/\, 0,\,0$$&lt;/font&gt;&lt;/span&gt;" style="text;html=1;align=center;verticalAlign=middle;resizable=0;points=[];autosize=1;strokeColor=none;fillColor=none;" vertex="1" parent="8zpeKdVMz-bTk2ZO7SkQ-56">
          <mxGeometry x="677" y="768.31" width="280" height="30" as="geometry" />
        </mxCell>
        <mxCell id="8zpeKdVMz-bTk2ZO7SkQ-92" value="&lt;span style=&quot;text-align: left; text-wrap-mode: wrap;&quot;&gt;&lt;font style=&quot;font-size: 15px;&quot;&gt;$$\overline{A},\,\overline{B} \,/\, 0,\,0$$&lt;/font&gt;&lt;/span&gt;" style="text;html=1;align=center;verticalAlign=middle;resizable=0;points=[];autosize=1;strokeColor=none;fillColor=none;" vertex="1" parent="8zpeKdVMz-bTk2ZO7SkQ-56">
          <mxGeometry x="759.71" y="610" width="280" height="30" as="geometry" />
        </mxCell>
        <mxCell id="8zpeKdVMz-bTk2ZO7SkQ-93" value="&lt;span style=&quot;text-align: left; text-wrap-mode: wrap;&quot;&gt;&lt;font style=&quot;font-size: 15px;&quot;&gt;$$\overline{A},\,\overline{B} \,/\, 0,\,0$$&lt;/font&gt;&lt;/span&gt;" style="text;html=1;align=center;verticalAlign=middle;resizable=0;points=[];autosize=1;strokeColor=none;fillColor=none;" vertex="1" parent="8zpeKdVMz-bTk2ZO7SkQ-56">
          <mxGeometry x="427" y="610" width="280" height="30" as="geometry" />
        </mxCell>
        <mxCell id="8zpeKdVMz-bTk2ZO7SkQ-94" value="&lt;span style=&quot;text-align: left; text-wrap-mode: wrap;&quot;&gt;&lt;font style=&quot;font-size: 15px;&quot;&gt;$$\overline{A},\,\overline{B} \,/\, 0,\,0$$&lt;/font&gt;&lt;/span&gt;" style="text;html=1;align=center;verticalAlign=middle;resizable=0;points=[];autosize=1;strokeColor=none;fillColor=none;" vertex="1" parent="8zpeKdVMz-bTk2ZO7SkQ-56">
          <mxGeometry x="737" y="445.56" width="280" height="30" as="geometry" />
        </mxCell>
        <mxCell id="8zpeKdVMz-bTk2ZO7SkQ-95" value="&lt;span style=&quot;text-align: left; text-wrap-mode: wrap;&quot;&gt;&lt;font style=&quot;font-size: 15px;&quot;&gt;$$\overline{A},\,\overline{B} \,/\, 0,\,0$$&lt;/font&gt;&lt;/span&gt;" style="text;html=1;align=center;verticalAlign=middle;resizable=0;points=[];autosize=1;strokeColor=none;fillColor=none;" vertex="1" parent="8zpeKdVMz-bTk2ZO7SkQ-56">
          <mxGeometry x="437" y="458" width="280" height="30" as="geometry" />
        </mxCell>
        <mxCell id="8zpeKdVMz-bTk2ZO7SkQ-96" value="&lt;span style=&quot;text-align: left; text-wrap-mode: wrap;&quot;&gt;&lt;font style=&quot;font-size: 15px;&quot;&gt;$$A,\,\overline{B} \,/\, 0,\,0$$&lt;/font&gt;&lt;/span&gt;" style="text;html=1;align=center;verticalAlign=middle;resizable=0;points=[];autosize=1;strokeColor=none;fillColor=none;" vertex="1" parent="8zpeKdVMz-bTk2ZO7SkQ-56">
          <mxGeometry x="107" y="1080" width="210" height="30" as="geometry" />
        </mxCell>
        <mxCell id="8zpeKdVMz-bTk2ZO7SkQ-97" value="&lt;span style=&quot;text-align: left; text-wrap-mode: wrap;&quot;&gt;&lt;font style=&quot;font-size: 15px;&quot;&gt;$$\overline{A},\,B \,/\, 0,\,0$$&lt;/font&gt;&lt;/span&gt;" style="text;html=1;align=center;verticalAlign=middle;resizable=0;points=[];autosize=1;strokeColor=none;fillColor=none;" vertex="1" parent="8zpeKdVMz-bTk2ZO7SkQ-56">
          <mxGeometry x="217" y="186" width="210" height="30" as="geometry" />
        </mxCell>
        <mxCell id="8zpeKdVMz-bTk2ZO7SkQ-98" value="&lt;span style=&quot;text-align: left; text-wrap-mode: wrap;&quot;&gt;&lt;font style=&quot;font-size: 15px;&quot;&gt;$$A,\,\overline{B} \,/\, 0,\,0$$&lt;/font&gt;&lt;/span&gt;" style="text;html=1;align=center;verticalAlign=middle;resizable=0;points=[];autosize=1;strokeColor=none;fillColor=none;" vertex="1" parent="8zpeKdVMz-bTk2ZO7SkQ-56">
          <mxGeometry x="149.26" y="900" width="210" height="30" as="geometry" />
        </mxCell>
        <mxCell id="8zpeKdVMz-bTk2ZO7SkQ-99" value="&lt;span style=&quot;text-align: left; text-wrap-mode: wrap;&quot;&gt;&lt;font style=&quot;font-size: 15px;&quot;&gt;$$A,\,\overline{B} \,/\, 0,\,0$$&lt;/font&gt;&lt;/span&gt;" style="text;html=1;align=center;verticalAlign=middle;resizable=0;points=[];autosize=1;strokeColor=none;fillColor=none;" vertex="1" parent="8zpeKdVMz-bTk2ZO7SkQ-56">
          <mxGeometry x="1007" y="201" width="210" height="30" as="geometry" />
        </mxCell>
        <mxCell id="8zpeKdVMz-bTk2ZO7SkQ-100" value="&lt;span style=&quot;text-align: left; text-wrap-mode: wrap;&quot;&gt;&lt;font style=&quot;font-size: 15px;&quot;&gt;$$\overline{A},\,B \,/\, 0,\,0$$&lt;/font&gt;&lt;/span&gt;" style="text;html=1;align=center;verticalAlign=middle;resizable=0;points=[];autosize=1;strokeColor=none;fillColor=none;" vertex="1" parent="8zpeKdVMz-bTk2ZO7SkQ-56">
          <mxGeometry x="1017" y="910" width="210" height="30" as="geometry" />
        </mxCell>
        <mxCell id="8zpeKdVMz-bTk2ZO7SkQ-101" value="&lt;span style=&quot;text-align: left; text-wrap-mode: wrap;&quot;&gt;&lt;font style=&quot;font-size: 15px;&quot;&gt;$$\overline{A},\,B \,/\, 0,\,0$$&lt;/font&gt;&lt;/span&gt;" style="text;html=1;align=center;verticalAlign=middle;resizable=0;points=[];autosize=1;strokeColor=none;fillColor=none;" vertex="1" parent="8zpeKdVMz-bTk2ZO7SkQ-56">
          <mxGeometry x="297" y="568" width="210" height="30" as="geometry" />
        </mxCell>
        <mxCell id="8zpeKdVMz-bTk2ZO7SkQ-102" value="&lt;span style=&quot;text-align: left; text-wrap-mode: wrap;&quot;&gt;&lt;font style=&quot;font-size: 15px;&quot;&gt;$$A,\,\overline{B} \,/\, 0,\,0$$&lt;/font&gt;&lt;/span&gt;" style="text;html=1;align=center;verticalAlign=middle;resizable=0;points=[];autosize=1;strokeColor=none;fillColor=none;" vertex="1" parent="8zpeKdVMz-bTk2ZO7SkQ-56">
          <mxGeometry x="417" y="358" width="210" height="30" as="geometry" />
        </mxCell>
        <mxCell id="8zpeKdVMz-bTk2ZO7SkQ-103" value="&lt;span style=&quot;text-align: left; text-wrap-mode: wrap;&quot;&gt;&lt;font style=&quot;font-size: 15px;&quot;&gt;$$\overline{A},\,B \,/\, 0,\,0$$&lt;/font&gt;&lt;/span&gt;" style="text;html=1;align=center;verticalAlign=middle;resizable=0;points=[];autosize=1;strokeColor=none;fillColor=none;" vertex="1" parent="8zpeKdVMz-bTk2ZO7SkQ-56">
          <mxGeometry x="826.6199999999999" y="358" width="210" height="30" as="geometry" />
        </mxCell>
        <mxCell id="8zpeKdVMz-bTk2ZO7SkQ-104" value="&lt;span style=&quot;text-align: left; text-wrap-mode: wrap;&quot;&gt;&lt;font style=&quot;font-size: 15px;&quot;&gt;$$A,\,B \,/\, 0,\,0$$&lt;/font&gt;&lt;/span&gt;" style="text;html=1;align=center;verticalAlign=middle;resizable=0;points=[];autosize=1;strokeColor=none;fillColor=none;" vertex="1" parent="8zpeKdVMz-bTk2ZO7SkQ-56">
          <mxGeometry x="1157" y="620" width="150" height="30" as="geometry" />
        </mxCell>
        <mxCell id="8zpeKdVMz-bTk2ZO7SkQ-105" value="&lt;span style=&quot;text-align: left; text-wrap-mode: wrap;&quot;&gt;&lt;font style=&quot;font-size: 15px;&quot;&gt;$$A,\,B \,/\, 0,\,0$$&lt;/font&gt;&lt;/span&gt;" style="text;html=1;align=center;verticalAlign=middle;resizable=0;points=[];autosize=1;strokeColor=none;fillColor=none;" vertex="1" parent="8zpeKdVMz-bTk2ZO7SkQ-56">
          <mxGeometry x="117" y="598" width="150" height="30" as="geometry" />
        </mxCell>
        <mxCell id="8zpeKdVMz-bTk2ZO7SkQ-106" value="&lt;span style=&quot;text-align: left; text-wrap-mode: wrap;&quot;&gt;&lt;font style=&quot;font-size: 15px;&quot;&gt;$$\overline{A},\,\overline{B} \,/\, 1,\,0$$&lt;/font&gt;&lt;/span&gt;" style="text;html=1;align=center;verticalAlign=middle;resizable=0;points=[];autosize=1;strokeColor=none;fillColor=none;" vertex="1" parent="8zpeKdVMz-bTk2ZO7SkQ-56">
          <mxGeometry x="627" y="951.83" width="280" height="30" as="geometry" />
        </mxCell>
        <mxCell id="8zpeKdVMz-bTk2ZO7SkQ-107" value="&lt;span style=&quot;text-align: left; text-wrap-mode: wrap;&quot;&gt;&lt;font style=&quot;font-size: 15px;&quot;&gt;$$\overline{A},\,\overline{B} \,/\, 0,\,1$$&lt;/font&gt;&lt;/span&gt;" style="text;html=1;align=center;verticalAlign=middle;resizable=0;points=[];autosize=1;strokeColor=none;fillColor=none;" vertex="1" parent="8zpeKdVMz-bTk2ZO7SkQ-56">
          <mxGeometry x="467" y="951.83" width="280" height="30" as="geometry" />
        </mxCell>
        <mxCell id="8zpeKdVMz-bTk2ZO7SkQ-108" value="&lt;span style=&quot;text-align: left; text-wrap-mode: wrap;&quot;&gt;&lt;font style=&quot;font-size: 15px;&quot;&gt;$$A,\,B \,/\, 0,\,0$$&lt;/font&gt;&lt;/span&gt;" style="text;html=1;align=center;verticalAlign=middle;resizable=0;points=[];autosize=1;strokeColor=none;fillColor=none;" vertex="1" parent="8zpeKdVMz-bTk2ZO7SkQ-56">
          <mxGeometry x="-63" y="748" width="150" height="30" as="geometry" />
        </mxCell>
        <mxCell id="8zpeKdVMz-bTk2ZO7SkQ-109" value="&lt;span style=&quot;text-align: left; text-wrap-mode: wrap;&quot;&gt;&lt;font style=&quot;font-size: 15px;&quot;&gt;$$A,\,B \,/\, 0,\,0$$&lt;/font&gt;&lt;/span&gt;" style="text;html=1;align=center;verticalAlign=middle;resizable=0;points=[];autosize=1;strokeColor=none;fillColor=none;" vertex="1" parent="8zpeKdVMz-bTk2ZO7SkQ-56">
          <mxGeometry x="417" y="828" width="150" height="30" as="geometry" />
        </mxCell>
        <mxCell id="8zpeKdVMz-bTk2ZO7SkQ-110" value="&lt;span style=&quot;text-align: left; text-wrap-mode: wrap;&quot;&gt;&lt;font style=&quot;font-size: 15px;&quot;&gt;$$A,\,B \,/\, 0,\,0$$&lt;/font&gt;&lt;/span&gt;" style="text;html=1;align=center;verticalAlign=middle;resizable=0;points=[];autosize=1;strokeColor=none;fillColor=none;" vertex="1" parent="8zpeKdVMz-bTk2ZO7SkQ-56">
          <mxGeometry x="817" y="838" width="150" height="30" as="geometry" />
        </mxCell>
        <mxCell id="8zpeKdVMz-bTk2ZO7SkQ-111" value="&lt;span style=&quot;text-align: left; text-wrap-mode: wrap;&quot;&gt;&lt;font style=&quot;font-size: 15px;&quot;&gt;$$\overline{A},\,B \,/\, 0,\,0$$&lt;/font&gt;&lt;/span&gt;" style="text;html=1;align=center;verticalAlign=middle;resizable=0;points=[];autosize=1;strokeColor=none;fillColor=none;" vertex="1" parent="1">
          <mxGeometry x="1370" y="1422" width="210" height="30" as="geometry" />
        </mxCell>
        <mxCell id="8zpeKdVMz-bTk2ZO7SkQ-112" value="&lt;span style=&quot;text-align: left; text-wrap-mode: wrap;&quot;&gt;&lt;font style=&quot;font-size: 15px;&quot;&gt;$$\overline{A},\,B \,/\, 0,\,0$$&lt;/font&gt;&lt;/span&gt;" style="text;html=1;align=center;verticalAlign=middle;resizable=0;points=[];autosize=1;strokeColor=none;fillColor=none;" vertex="1" parent="1">
          <mxGeometry x="250" y="810" width="210" height="30" as="geometry" />
        </mxCell>
        <mxCell id="8zpeKdVMz-bTk2ZO7SkQ-113" value="&lt;span style=&quot;text-align: left; text-wrap-mode: wrap;&quot;&gt;&lt;font style=&quot;font-size: 15px;&quot;&gt;$$\overline{A},\,\overline{B} \,/\, 0,\,0$$&lt;/font&gt;&lt;/span&gt;" style="text;html=1;align=center;verticalAlign=middle;resizable=0;points=[];autosize=1;strokeColor=none;fillColor=none;" vertex="1" parent="1">
          <mxGeometry x="1160" y="322" width="280" height="30" as="geometry" />
        </mxCell>
        <mxCell id="8zpeKdVMz-bTk2ZO7SkQ-114" value="&lt;span style=&quot;text-align: left; text-wrap-mode: wrap;&quot;&gt;&lt;font style=&quot;font-size: 15px;&quot;&gt;$$A,\,B \,/\, 0,\,0$$&lt;/font&gt;&lt;/span&gt;" style="text;html=1;align=center;verticalAlign=middle;resizable=0;points=[];autosize=1;strokeColor=none;fillColor=none;" vertex="1" parent="1">
          <mxGeometry x="890" y="320" width="150" height="30" as="geometry" />
        </mxCell>
        <mxCell id="8zpeKdVMz-bTk2ZO7SkQ-115" value="&lt;span style=&quot;text-align: left; text-wrap-mode: wrap;&quot;&gt;&lt;font style=&quot;font-size: 15px;&quot;&gt;$$A,\,B \,/\, 0,\,0$$&lt;/font&gt;&lt;/span&gt;" style="text;html=1;align=center;verticalAlign=middle;resizable=0;points=[];autosize=1;strokeColor=none;fillColor=none;" vertex="1" parent="1">
          <mxGeometry x="1650" y="1140" width="150" height="30" as="geometry" />
        </mxCell>
      </root>
    </mxGraphModel>
  </diagram>
</mxfile>
